<svg width="24" height="24" viewBox="0 0 24 24" fill="none" xmlns="http://www.w3.org/2000/svg">
<path d="M20.6769 24H3.32308C1.48923 24 0 22.5108 0 20.6769V3.32308C0 1.48923 1.48923 0 3.32308 0H20.6769C22.5108 0 24 1.48923 24 3.32308V20.6769C24 22.5108 22.5108 24 20.6769 24Z" fill="#6750A4"/>
<path d="M21.6492 3.88921L13.8092 14.0554V24H10.1785V14.0677L2.35077 3.88921H6.00616L12.0123 11.7292L17.9938 3.88921C17.9938 3.88921 21.6492 3.88921 21.6492 3.88921Z" fill="white"/>
<path d="M12 8.94771C13.1012 8.94771 13.9938 8.05503 13.9938 6.95386C13.9938 5.85269 13.1012 4.96001 12 4.96001C10.8988 4.96001 10.0061 5.85269 10.0061 6.95386C10.0061 8.05503 10.8988 8.94771 12 8.94771Z" fill="white"/>
</svg>
