<svg width="363" height="63" viewBox="0 0 363 63" fill="none" xmlns="http://www.w3.org/2000/svg">
<path d="M20.9668 15.7363C24.8926 15.7363 28.4668 16.5859 31.6895 18.2852C34.9414 19.9844 37.3438 22.2988 38.8965 25.2285C39.1602 25.6973 39.292 26.21 39.292 26.7666C39.292 27.6455 38.9697 28.3926 38.3252 29.0078C37.71 29.623 36.9629 29.9307 36.084 29.9307C35.5566 29.9307 35.0146 29.7695 34.458 29.4473C33.9014 29.0957 33.5059 28.6855 33.2715 28.2168C32.2168 26.2246 30.6055 24.7158 28.4375 23.6904C26.2988 22.6357 23.7939 22.1084 20.9229 22.1084C19.1064 22.1084 17.1289 22.3574 14.9902 22.8555C12.8516 23.3242 11.0059 24.1152 9.45312 25.2285C7.92969 26.3125 7.16797 27.7773 7.16797 29.623C7.16797 31.0586 7.7832 32.1719 9.01367 32.9629C10.2441 33.7539 11.7676 34.3398 13.584 34.7207C15.4297 35.0723 17.29 35.3213 19.165 35.4678C21.0693 35.6143 22.6953 35.7607 24.043 35.9072C26.709 36.1709 29.3311 36.6543 31.9092 37.3574C34.4873 38.0605 36.626 39.2178 38.3252 40.8291C40.0244 42.4404 40.874 44.7695 40.874 47.8164C40.874 51.0977 39.9072 53.793 37.9736 55.9023C36.04 57.9824 33.5645 59.5205 30.5469 60.5166C27.5293 61.4834 24.3945 61.9668 21.1426 61.9668C16.5723 61.9668 12.4268 61.0879 8.70605 59.3301C4.98535 57.543 2.24609 54.9355 0.488281 51.5078C0.253906 51.0977 0.136719 50.5996 0.136719 50.0137C0.136719 49.1348 0.444336 48.3877 1.05957 47.7725C1.6748 47.1572 2.42188 46.8496 3.30078 46.8496C3.85742 46.8496 4.41406 47.0254 4.9707 47.377C5.52734 47.6992 5.92285 48.1094 6.15723 48.6074C7.41699 51.0098 9.35059 52.7822 11.958 53.9248C14.5654 55.0381 17.627 55.5947 21.1426 55.5947C23.1641 55.5947 25.2002 55.3604 27.251 54.8916C29.3311 54.3936 31.0596 53.5732 32.4365 52.4307C33.8428 51.2881 34.5459 49.75 34.5459 47.8164C34.5459 46.293 33.916 45.1357 32.6562 44.3447C31.3965 43.5244 29.8145 42.9385 27.9102 42.5869C26.0059 42.2354 24.0723 42.001 22.1094 41.8838C20.1758 41.7666 18.5059 41.6201 17.0996 41.4443C14.6094 41.1514 12.1045 40.6533 9.58496 39.9502C7.09473 39.2178 5.01465 38.0459 3.34473 36.4346C1.6748 34.8232 0.839844 32.5527 0.839844 29.623C0.839844 27.1621 1.44043 25.0674 2.6416 23.3389C3.87207 21.5811 5.46875 20.1455 7.43164 19.0322C9.42383 17.8896 11.6064 17.0547 13.9795 16.5273C16.3525 16 18.6816 15.7363 20.9668 15.7363ZM51.4648 3.51953C51.4648 2.61133 51.7871 1.83496 52.4316 1.19043C53.0762 0.545898 53.8525 0.223633 54.7607 0.223633C55.6689 0.223633 56.4453 0.545898 57.0898 1.19043C57.7344 1.83496 58.0566 2.61133 58.0566 3.51953V23.7344C59.5215 21.3027 61.4404 19.3984 63.8135 18.0215C66.1865 16.6152 68.5449 15.9121 70.8887 15.9121C77.4219 15.9121 82.0508 17.875 84.7754 21.8008C87.5293 25.6973 88.9062 30.9414 88.9062 37.5332V37.9287L88.8623 58.6709V58.7148C88.8623 59.623 88.54 60.3994 87.8955 61.0439C87.251 61.6885 86.4746 62.0107 85.5664 62.0107C84.6582 62.0107 83.8818 61.6885 83.2373 61.0439C82.5928 60.3994 82.2705 59.623 82.2705 58.7148V58.6709L82.3145 37.8408C82.3145 33.0361 81.5674 29.2715 80.0732 26.5469C78.6084 23.8223 75.7227 22.46 71.416 22.46C68.6914 22.46 66.333 23.0312 64.3408 24.1738C62.3486 25.3164 60.8105 26.7666 59.7266 28.5244C58.6719 30.2822 58.1445 32.0693 58.1445 33.8857V58.7588C58.1445 59.667 57.8223 60.4434 57.1777 61.0879C56.5332 61.7324 55.7568 62.0547 54.8486 62.0547C53.8818 62.0547 53.0762 61.7178 52.4316 61.0439C51.7871 60.3701 51.4648 59.6084 51.4648 58.7588V3.51953ZM133.379 62.1426C132.471 62.1426 131.724 61.8203 131.138 61.1758C130.581 60.5312 130.303 59.7549 130.303 58.8467L130.083 53.6172C129.058 54.877 127.842 56.166 126.436 57.4844C125.029 58.7734 123.433 59.8574 121.646 60.7363C119.858 61.5859 117.837 62.0107 115.581 62.0107C111.714 62.0107 108.594 61.0146 106.221 59.0225C103.848 57.0303 102.119 54.4082 101.035 51.1562C99.9805 47.9043 99.4531 44.418 99.4531 40.6973L99.4971 19.3838C99.4971 18.4756 99.8193 17.6992 100.464 17.0547C101.108 16.4102 101.885 16.0879 102.793 16.0879C103.73 16.0879 104.507 16.4102 105.122 17.0547C105.767 17.6992 106.089 18.4902 106.089 19.4277L106.045 40.6973C106.045 43.2754 106.309 45.6924 106.836 47.9482C107.363 50.1748 108.315 51.9766 109.692 53.3535C111.099 54.7305 113.062 55.4189 115.581 55.4189C120.356 55.4189 123.96 54.1445 126.392 51.5957C128.823 49.0469 130.039 45.458 130.039 40.8291V19.2959C130.039 18.3877 130.361 17.6113 131.006 16.9668C131.65 16.3223 132.427 16 133.335 16C134.272 16 135.049 16.3223 135.664 16.9668C136.309 17.6113 136.631 18.4023 136.631 19.3398L136.675 58.8027C136.675 59.7109 136.353 60.4873 135.708 61.1318C135.093 61.8057 134.316 62.1426 133.379 62.1426ZM168.359 61.8789C165.283 61.8789 162.515 61.0586 160.054 59.418C157.593 57.7773 155.527 56.1074 153.857 54.4082L153.638 58.627C153.638 59.5352 153.345 60.3115 152.759 60.9561C152.202 61.6006 151.47 61.9229 150.562 61.9229C149.653 61.9229 148.877 61.6006 148.232 60.9561C147.588 60.3115 147.266 59.5352 147.266 58.627V3.2998C147.266 2.3916 147.588 1.61523 148.232 0.970703C148.877 0.326172 149.653 0.00390625 150.562 0.00390625C151.47 0.00390625 152.246 0.326172 152.891 0.970703C153.535 1.61523 153.857 2.3916 153.857 3.2998V23.1631C155.645 21.2881 157.725 19.6328 160.098 18.1973C162.471 16.7617 165.093 16.0439 167.964 16.0439C171.011 16.0439 173.794 16.6885 176.313 17.9775C178.862 19.2666 181.074 21.0098 182.949 23.207C184.824 25.375 186.274 27.8506 187.3 30.6338C188.325 33.417 188.838 36.3027 188.838 39.291C188.838 43.2461 187.959 46.9521 186.201 50.4092C184.443 53.8369 182.026 56.6055 178.95 58.7148C175.874 60.8242 172.344 61.8789 168.359 61.8789ZM168.228 55.2871C171.011 55.2871 173.442 54.5547 175.522 53.0898C177.632 51.5957 179.258 49.6475 180.4 47.2451C181.572 44.8135 182.158 42.2061 182.158 39.4229C182.158 36.6104 181.572 33.9297 180.4 31.3809C179.229 28.8027 177.588 26.708 175.479 25.0967C173.369 23.4561 170.894 22.6357 168.052 22.6357C165.122 22.6357 162.588 23.4121 160.449 24.9648C158.34 26.4883 156.714 28.4658 155.571 30.8975C154.458 33.3291 153.901 35.9219 153.901 38.6758C153.901 41.4297 154.473 44.0811 155.615 46.6299C156.758 49.1787 158.398 51.2588 160.537 52.8701C162.705 54.4814 165.269 55.2871 168.228 55.2871ZM198.506 3.51953C198.506 2.61133 198.828 1.83496 199.473 1.19043C200.117 0.545898 200.894 0.223633 201.802 0.223633C202.71 0.223633 203.486 0.545898 204.131 1.19043C204.775 1.83496 205.098 2.61133 205.098 3.51953V23.7344C206.562 21.3027 208.481 19.3984 210.854 18.0215C213.228 16.6152 215.586 15.9121 217.93 15.9121C224.463 15.9121 229.092 17.875 231.816 21.8008C234.57 25.6973 235.947 30.9414 235.947 37.5332V37.9287L235.903 58.6709V58.7148C235.903 59.623 235.581 60.3994 234.937 61.0439C234.292 61.6885 233.516 62.0107 232.607 62.0107C231.699 62.0107 230.923 61.6885 230.278 61.0439C229.634 60.3994 229.312 59.623 229.312 58.7148V58.6709L229.355 37.8408C229.355 33.0361 228.608 29.2715 227.114 26.5469C225.649 23.8223 222.764 22.46 218.457 22.46C215.732 22.46 213.374 23.0312 211.382 24.1738C209.39 25.3164 207.852 26.7666 206.768 28.5244C205.713 30.2822 205.186 32.0693 205.186 33.8857V58.7588C205.186 59.667 204.863 60.4434 204.219 61.0879C203.574 61.7324 202.798 62.0547 201.89 62.0547C200.923 62.0547 200.117 61.7178 199.473 61.0439C198.828 60.3701 198.506 59.6084 198.506 58.7588V3.51953ZM267.104 15.9561C270.239 15.9561 273.052 16.8643 275.542 18.6807C278.062 20.4971 280.259 22.416 282.134 24.4375L282.529 18.9004C282.529 18.0508 282.764 17.333 283.232 16.7471C283.701 16.1318 284.36 15.8242 285.21 15.8242C286.06 15.8242 286.777 16.1318 287.363 16.7471C287.979 17.333 288.286 18.0508 288.286 18.9004V58.627C288.286 59.4766 287.979 60.209 287.363 60.8242C286.777 61.4102 286.06 61.7031 285.21 61.7031C284.36 61.7031 283.628 61.4102 283.013 60.8242C282.427 60.209 282.134 59.4766 282.134 58.627V53.6172C280.2 55.7266 277.9 57.6309 275.234 59.3301C272.598 61.0293 269.814 61.8789 266.885 61.8789C263.867 61.8789 261.069 61.2637 258.491 60.0332C255.913 58.7734 253.657 57.0742 251.724 54.9355C249.79 52.7969 248.281 50.3652 247.197 47.6406C246.143 44.8867 245.615 42.001 245.615 38.9834C245.615 35.9951 246.143 33.124 247.197 30.3701C248.281 27.5869 249.79 25.126 251.724 22.9873C253.687 20.8193 255.972 19.1055 258.579 17.8457C261.187 16.5859 264.028 15.9561 267.104 15.9561ZM282.354 38.7197C282.354 35.8779 281.665 33.2412 280.288 30.8096C278.94 28.3486 277.109 26.3564 274.795 24.833C272.51 23.3096 269.961 22.5479 267.148 22.5479C264.307 22.5479 261.758 23.3242 259.502 24.877C257.246 26.4297 255.459 28.4658 254.141 30.9854C252.852 33.4756 252.207 36.1416 252.207 38.9834C252.207 41.7959 252.852 44.4473 254.141 46.9375C255.43 49.4277 257.173 51.4492 259.37 53.002C261.597 54.5254 264.102 55.2871 266.885 55.2871C269.697 55.2871 272.275 54.5107 274.619 52.958C276.963 51.376 278.838 49.3252 280.244 46.8057C281.65 44.2568 282.354 41.5615 282.354 38.7197ZM332.363 25.3604C333.33 23.8076 334.517 22.2988 335.923 20.834C337.329 19.3691 338.999 18.168 340.933 17.2305C342.866 16.293 345.078 15.8242 347.568 15.8242C351.289 15.8242 354.248 16.7178 356.445 18.5049C358.643 20.2627 360.225 22.6797 361.191 25.7559C362.188 28.832 362.686 32.3184 362.686 36.2148L362.729 58.3633C362.729 59.2715 362.407 60.0479 361.763 60.6924C361.118 61.3369 360.342 61.6592 359.434 61.6592C358.525 61.6592 357.749 61.3369 357.104 60.6924C356.46 60.0186 356.138 59.2275 356.138 58.3193L356.094 36.2148C356.094 33.8125 355.859 31.5713 355.391 29.4912C354.951 27.4111 354.116 25.7266 352.886 24.4375C351.655 23.1484 349.854 22.5039 347.48 22.5039C344.404 22.5039 341.885 23.1631 339.922 24.4814C337.959 25.7705 336.523 27.4697 335.615 29.5791C334.707 31.6592 334.238 33.8711 334.209 36.2148L334.121 58.4951C334.121 59.4033 333.799 60.1797 333.154 60.8242C332.51 61.4688 331.733 61.791 330.825 61.791C329.917 61.791 329.141 61.4688 328.496 60.8242C327.852 60.1504 327.529 59.3594 327.529 58.4512L327.485 36.2148C327.485 33.7539 327.251 31.4834 326.782 29.4033C326.313 27.3232 325.435 25.6533 324.146 24.3936C322.886 23.1338 321.055 22.5039 318.652 22.5039C314.463 22.5039 311.226 23.793 308.94 26.3711C306.685 28.9199 305.557 32.2012 305.557 36.2148L305.513 58.583C305.513 59.4912 305.19 60.2676 304.546 60.9121C303.901 61.5566 303.125 61.8789 302.217 61.8789C301.309 61.8789 300.532 61.5566 299.888 60.9121C299.243 60.2383 298.921 59.4473 298.921 58.5391L298.877 18.9883C298.936 18.0801 299.272 17.333 299.888 16.7471C300.503 16.1318 301.265 15.8242 302.173 15.8242C303.11 15.8242 303.857 16.1318 304.414 16.7471C305 17.333 305.278 18.0947 305.249 19.0322L305.469 24.2178C306.201 22.958 307.227 21.6836 308.545 20.3945C309.893 19.1055 311.416 18.0215 313.115 17.1426C314.844 16.2637 316.646 15.8242 318.521 15.8242C322.065 15.8242 324.98 16.791 327.266 18.7246C329.58 20.6289 331.279 22.8408 332.363 25.3604Z" fill="black"/>
</svg>
